# xmcd
#
# Track frame offsets:
#	150
#	14855
#	31842
#	49352
#	62164
#	75040
#	88280
#	99287
#	114160
#	125745
#	146222
#	158015
#	173032
#	186610
#	199342
#	213109
#	225450
#	239912
#	255782
#	272842
#
# Disc length: 3890 seconds
#
# Revision: 1
# Processed by: cddbd v1.5.2PL0 Copyright (c) Steve Scherf et al.
# Submitted via: audiograbber 1.83.01
#
DISCID=1a0f3014
DTITLE=Various Artist - Muistojen 70-Luku 1976 (Valitut Palat) [CD3)
DYEAR=2012
DGENRE=Oldies
TTITLE0=Kari Rydman - El‰m‰ On Kaunis
TTITLE1=Juha Vainio - M‰ Uskon Huomisp‰iv‰‰n
TTITLE2=Katri Helena - Kes‰n Lapsi
TTITLE3=Tapani Kansa - Melina
TTITLE4=Markku Aro - Judy, Judy
TTITLE5=Taiska - Brasilo Brasila
TTITLE6=M.A. Numminen - Maailma Se On Kuin Silkki‰ Vaan
TTITLE7=Marion Rung - Baby Face
TTITLE8=Kai Hyttinen - Nostalgia
TTITLE9=Tapio Rautavaara - Korttipakka
TTITLE10=Veikko Lavi - Jokainen Ihminen On Laulun Arvoinen
TTITLE11=Katri Helena - Palman Mainingit
TTITLE12=Matti Ja Teppo - Cara Mia
TTITLE13=Taiska - Hetki T‰‰
TTITLE14=Hector - Lola
TTITLE15=Tapani Kansa - R-A-K-A-S
TTITLE16=Virve Rosti - N‰inkˆ Aina Meille T‰‰ll‰ K‰y
TTITLE17=Kai Hyttinen - Olen El‰nyt Vain Sulle
TTITLE18=Arto Sotavalta - Seilaan
TTITLE19=Lasse MÂrtenson - Myrskyluodon Maija
EXTD=TR.
EXTT0=
EXTT1=
EXTT2=
EXTT3=
EXTT4=
EXTT5=
EXTT6=
EXTT7=
EXTT8=
EXTT9=
EXTT10=
EXTT11=
EXTT12=
EXTT13=
EXTT14=
EXTT15=
EXTT16=
EXTT17=
EXTT18=
EXTT19=
PLAYORDER=
